<svg width="167" height="42" viewBox="0 0 167 42" fill="none" xmlns="http://www.w3.org/2000/svg">
<path d="M149.477 41.0137H17.5231C8.06877 41.0137 0.407471 33.3719 0.407471 23.9416C0.407471 14.5114 8.06877 6.86963 17.5231 6.86963H149.477C158.931 6.86963 166.593 14.5114 166.593 23.9416C166.633 33.3719 158.931 41.0137 149.477 41.0137Z" fill="white"/>
<path d="M149.477 41.3794H17.5232C7.86506 41.3794 0 33.5344 0 23.9009C0 14.2674 7.86506 6.42239 17.5232 6.42239H149.477C159.135 6.42239 167 14.2674 167 23.9009C167 33.575 159.135 41.3794 149.477 41.3794ZM17.5232 7.1947C8.27257 7.1947 0.77428 14.6739 0.77428 23.9009C0.77428 33.1279 8.27257 40.6071 17.5232 40.6071H149.477C158.727 40.6071 166.226 33.1279 166.226 23.9009C166.226 14.6739 158.727 7.1947 149.477 7.1947H17.5232Z" fill="#232C33"/>
<path d="M46.3346 33.4124C44.5415 27.4372 41.8926 16.6249 41.4036 14.5112C41.3629 14.308 41.1591 14.1454 40.9554 14.1047L32.5198 13.2105C32.2345 13.1698 31.99 13.3731 31.9493 13.617C31.4195 16.0558 28.9336 27.3152 26.9776 33.3717C26.8553 33.6969 27.0998 34.0627 27.4666 34.0627L34.8834 34.4692C35.1279 34.4692 35.3724 34.3066 35.4539 34.0627L36.3912 29.6322C36.4319 29.3883 36.6764 29.2257 36.921 29.2257H38.062C38.3065 29.2257 38.551 29.3883 38.5918 29.6322L39.5698 34.0627C39.6106 34.3066 39.8551 34.5099 40.1403 34.4692L45.9678 34.0627C46.2123 34.1034 46.4568 33.7782 46.3346 33.4124ZM36.0652 21.5433C35.0464 21.5433 34.1906 20.6897 34.1906 19.6735C34.1906 18.6573 35.0464 17.8037 36.0652 17.8037C37.084 17.8037 37.9397 18.6573 37.9397 19.6735C37.9397 20.6897 37.1247 21.5433 36.0652 21.5433Z" fill="#FFE500"/>
<path d="M34.8834 34.9163L27.4259 34.5098C27.1406 34.5098 26.8961 34.3472 26.7331 34.1033C26.5701 33.8595 26.5293 33.5749 26.6108 33.331C28.5669 27.2339 31.0935 15.8119 31.5825 13.6169C31.664 13.1698 32.1123 12.8446 32.5606 12.8853L40.9961 13.7795C41.3629 13.8202 41.6889 14.1047 41.7704 14.4705C42.3002 16.5842 44.9083 27.3965 46.7014 33.3717C46.7829 33.6562 46.7421 33.9407 46.5791 34.144C46.4161 34.3879 46.1716 34.5098 45.8863 34.5505L40.0588 34.9569C39.6106 34.9976 39.2031 34.6724 39.1216 34.2253L38.1435 29.7947C38.1435 29.7134 38.062 29.6727 37.9805 29.6727H36.8395C36.758 29.6727 36.7172 29.7134 36.6765 29.7947L35.7392 34.2253C35.6577 34.5911 35.2909 34.9163 34.8834 34.9163ZM27.3036 33.5343C27.3036 33.6156 27.3036 33.6562 27.3036 33.6562C27.3036 33.6969 27.3443 33.7375 27.4259 33.7375L34.8426 34.144C34.9241 34.144 35.0056 34.1033 35.0056 34.022L35.9429 29.5914C36.0244 29.185 36.3912 28.8598 36.8395 28.8598H37.9805C38.388 28.8598 38.7955 29.1443 38.877 29.5914L39.8551 34.022C39.8551 34.1033 39.9366 34.144 40.0181 34.144L45.8456 33.7375C45.9271 33.7375 45.9678 33.6969 45.9678 33.6562C45.9678 33.6156 46.0086 33.5749 46.0086 33.5343C44.2155 27.5591 41.5667 16.7061 41.0369 14.5925C41.0369 14.5112 40.9554 14.4705 40.9146 14.4705L32.4791 13.5763C32.3975 13.5763 32.316 13.6169 32.316 13.6982C31.7863 15.9745 29.2597 27.3965 27.3036 33.5343Z" fill="#232C33"/>
<path d="M36.0652 21.9091C34.8426 21.9091 33.8238 20.8929 33.8238 19.6735C33.8238 18.4541 34.8426 17.4379 36.0652 17.4379C37.2877 17.4379 38.3065 18.4541 38.3065 19.6735C38.3472 20.9336 37.3285 21.9091 36.0652 21.9091ZM36.0652 18.1696C35.2501 18.1696 34.5574 18.8199 34.5574 19.6735C34.5574 20.5271 35.2094 21.1775 36.0652 21.1775C36.9209 21.1775 37.573 20.5271 37.573 19.6735C37.573 18.8199 36.9209 18.1696 36.0652 18.1696Z" fill="#232C33"/>
<path d="M22.6579 23.2099C22.6171 23.2099 22.6171 23.1286 22.6579 23.1286C24.451 22.1531 25.6327 20.5272 25.6327 18.7387C25.6327 15.7307 22.3319 13.2919 18.2975 13.2919C14.7113 13.2919 12.796 13.8609 12.144 14.1048C11.981 14.1861 11.8587 14.3081 11.818 14.4707C11.6142 15.243 11.1252 17.8038 11.1252 23.0473C11.1252 28.4534 11.655 32.5995 11.818 33.8189C11.8587 34.0628 12.0217 34.2254 12.2662 34.2661C12.9998 34.388 14.8743 34.6319 18.868 34.6319C23.1469 34.5912 26.57 31.8679 26.57 28.4941C26.5293 26.2178 24.9807 24.2667 22.6579 23.2099ZM19.4385 30.0794C18.4197 30.0794 17.5639 29.2258 17.5639 28.2096C17.5639 27.1934 18.4197 26.3398 19.4385 26.3398C20.4573 26.3398 21.3131 27.1934 21.3131 28.2096C21.3131 29.2258 20.498 30.0794 19.4385 30.0794ZM19.4385 21.5433C18.4197 21.5433 17.5639 20.6897 17.5639 19.6736C17.5639 18.6574 18.4197 17.8038 19.4385 17.8038C20.4573 17.8038 21.3131 18.6574 21.3131 19.6736C21.3131 20.6897 20.498 21.5433 19.4385 21.5433Z" fill="#E2001A"/>
<path d="M18.8272 34.9976C14.8336 34.9976 12.959 34.7538 12.144 34.6318C11.7772 34.5505 11.4512 34.266 11.4105 33.8595C11.2475 32.7214 10.7177 28.494 10.7177 23.0472C10.7177 17.8037 11.2067 15.2429 11.4105 14.3893C11.492 14.1047 11.6957 13.8609 11.981 13.7389C12.6738 13.495 14.6298 12.926 18.2567 12.926C22.4949 12.926 25.9588 15.5274 25.9588 18.7386C25.9588 20.4051 24.9807 22.031 23.3099 23.1285C25.5105 24.348 26.8961 26.3397 26.8961 28.494C26.8961 32.0304 23.2692 34.957 18.8272 34.9976ZM18.2567 13.6576C14.7113 13.6576 12.8775 14.186 12.2255 14.4299C12.1847 14.4299 12.144 14.4706 12.144 14.5519C11.9402 15.4055 11.492 17.9256 11.492 23.0472C11.492 28.4534 12.0217 32.5994 12.1847 33.7782C12.1847 33.8595 12.2255 33.9002 12.307 33.9002C13.0405 34.0221 14.9151 34.266 18.8272 34.266C22.8617 34.2253 26.1625 31.6645 26.1625 28.494C26.1625 26.4616 24.777 24.5512 22.4949 23.535C22.3319 23.4537 22.2504 23.3318 22.2504 23.1692C22.2504 23.0066 22.3319 22.844 22.4541 22.7627C24.2065 21.7872 25.2252 20.3238 25.2252 18.6979C25.2252 15.9339 22.0874 13.6576 18.2567 13.6576Z" fill="#232C33"/>
<path d="M19.4385 30.4857C18.2159 30.4857 17.1971 29.4695 17.1971 28.2501C17.1971 27.0307 18.2159 26.0145 19.4385 26.0145C20.661 26.0145 21.6798 27.0307 21.6798 28.2501C21.7206 29.4695 20.7018 30.4857 19.4385 30.4857ZM19.4385 26.7461C18.6234 26.7461 17.9307 27.3965 17.9307 28.2501C17.9307 29.1037 18.5827 29.7541 19.4385 29.7541C20.2535 29.7541 20.9463 29.1037 20.9463 28.2501C20.9463 27.3965 20.2943 26.7461 19.4385 26.7461Z" fill="#232C33"/>
<path d="M19.4385 21.9091C18.2159 21.9091 17.1971 20.8929 17.1971 19.6735C17.1971 18.4541 18.2159 17.4379 19.4385 17.4379C20.661 17.4379 21.6798 18.4541 21.6798 19.6735C21.7206 20.9336 20.7018 21.9091 19.4385 21.9091ZM19.4385 18.1696C18.6234 18.1696 17.9307 18.8199 17.9307 19.6735C17.9307 20.5271 18.5827 21.1775 19.4385 21.1775C20.2535 21.1775 20.9463 20.5271 20.9463 19.6735C20.9463 18.8199 20.2943 18.1696 19.4385 18.1696Z" fill="#232C33"/>
<path d="M73.4751 34.022C75.1052 27.5184 76.8168 21.218 80.1176 14.755C80.2806 14.4298 80.0769 14.0233 79.7101 13.9827L72.3341 13.251C72.0896 13.2104 71.8451 13.373 71.7636 13.6169L69.8482 19.3075C69.8075 19.3888 69.6852 19.3888 69.6445 19.3075L68.2182 14.5111C68.1774 14.3079 68.0144 14.1859 67.8106 14.1453L62.8797 13.3323C62.4722 13.251 62.1462 13.6575 62.2684 14.0233L66.5473 27.1119C66.5473 27.1525 66.5473 27.1525 66.5473 27.1932L64.632 33.4529C64.5098 33.7781 64.7543 34.1439 65.121 34.1439L72.9046 34.5098C73.1899 34.4691 73.4344 34.2659 73.4751 34.022Z" fill="#3CA837"/>
<path d="M72.9862 34.835H72.9454L65.1618 34.4692C64.8766 34.4692 64.6321 34.3066 64.4691 34.1034C64.3061 33.8595 64.2653 33.5749 64.3468 33.3311L66.2621 27.1526L62.024 14.1454C61.9425 13.8202 61.9832 13.495 62.187 13.2511C62.3907 13.0072 62.7168 12.8853 63.0428 12.9666L67.9737 13.7795C68.2997 13.8202 68.585 14.1047 68.7072 14.4299L69.889 18.4134L71.5191 13.5357C71.6414 13.1292 72.0489 12.8853 72.4971 12.9259L79.8732 13.6576C80.1584 13.6982 80.4437 13.8608 80.566 14.1454C80.729 14.4299 80.729 14.7144 80.566 14.999C77.3058 21.34 75.635 27.4372 73.9234 34.1847C73.7604 34.5505 73.3937 34.835 72.9862 34.835ZM62.839 13.6982C62.7983 13.6982 62.7575 13.7389 62.7168 13.7389C62.676 13.7795 62.676 13.8202 62.676 13.9015L66.9549 26.99C66.9957 27.0713 66.9957 27.1933 66.9549 27.2746L65.0396 33.5343C65.0396 33.6156 65.0396 33.6562 65.0803 33.6562C65.1211 33.6562 65.1211 33.7375 65.2026 33.7375L73.0269 34.1034C73.1084 34.1034 73.1492 34.0627 73.1899 33.9814C74.9015 27.1933 76.5723 21.0555 79.8732 14.6738C79.9139 14.5925 79.8732 14.5518 79.8732 14.5112C79.8732 14.4706 79.8324 14.4299 79.7509 14.4299L72.3749 13.6982C72.2934 13.6982 72.2526 13.7389 72.2119 13.8202L70.2966 19.5109C70.2151 19.7141 70.052 19.836 69.8075 19.836C69.6038 19.836 69.4 19.6735 69.3593 19.4702L67.933 14.6738C67.933 14.6331 67.8515 14.5925 67.8107 14.5518L62.839 13.6982Z" fill="#232C33"/>
<path d="M58.9269 23.2099C58.8861 23.2099 58.8861 23.1286 58.9269 23.1286C60.7199 22.1531 61.9017 20.5272 61.9017 18.7387C61.9017 15.7307 58.6008 13.2919 54.5664 13.2919C50.9803 13.2919 49.065 13.8609 48.413 14.1048C48.2499 14.1861 48.1277 14.3081 48.0869 14.4707C47.8832 15.243 47.3942 17.8038 47.3942 23.0473C47.3942 28.4534 47.9239 32.5995 48.0869 33.8189C48.1277 34.0628 48.2907 34.2254 48.5352 34.2661C49.2687 34.388 51.1433 34.6319 55.137 34.6319C59.4159 34.5912 62.839 31.8679 62.839 28.4941C62.7983 26.2178 61.2497 24.2667 58.9269 23.2099ZM55.7075 30.0794C54.6887 30.0794 53.8329 29.2258 53.8329 28.2096C53.8329 27.1934 54.6887 26.3398 55.7075 26.3398C56.7263 26.3398 57.5821 27.1934 57.5821 28.2096C57.5821 29.2258 56.767 30.0794 55.7075 30.0794ZM55.7075 21.5433C54.6887 21.5433 53.8329 20.6897 53.8329 19.6736C53.8329 18.6574 54.6887 17.8038 55.7075 17.8038C56.7263 17.8038 57.5821 18.6574 57.5821 19.6736C57.5821 20.6897 56.767 21.5433 55.7075 21.5433Z" fill="#0090D4"/>
<path d="M55.0962 34.9976C51.1025 34.9976 49.2279 34.7538 48.4129 34.6318C48.0461 34.5505 47.7201 34.266 47.6794 33.8595C47.5164 32.7214 46.9866 28.494 46.9866 23.0472C46.9866 17.8037 47.4756 15.2429 47.6794 14.3893C47.7609 14.1047 47.9646 13.8609 48.2499 13.7389C48.9427 13.495 50.8988 12.926 54.5256 12.926C58.7638 12.926 62.2277 15.5274 62.2277 18.7386C62.2277 20.4051 61.2497 22.031 59.5788 23.1285C61.7794 24.348 63.165 26.3397 63.165 28.494C63.165 32.0304 59.5381 34.957 55.0962 34.9976ZM54.5256 13.6576C51.021 13.6576 49.1464 14.186 48.4944 14.4299C48.4537 14.4299 48.4129 14.4706 48.4129 14.5519C48.2092 15.4055 47.7609 17.9256 47.7609 23.0472C47.7609 28.4534 48.2907 32.5994 48.4537 33.7782C48.4537 33.8595 48.4944 33.9002 48.5759 33.9002C49.3094 34.0221 51.184 34.266 55.0962 34.266C59.1306 34.2253 62.4315 31.6645 62.4315 28.494C62.4315 26.4616 61.0459 24.5512 58.7638 23.535C58.6008 23.4537 58.5193 23.3318 58.5193 23.1692C58.5193 23.0066 58.6008 22.844 58.7231 22.7627C60.4754 21.7872 61.4942 20.3238 61.4942 18.6979C61.4942 15.9339 58.3563 13.6576 54.5256 13.6576Z" fill="#232C33"/>
<path d="M55.7074 21.9091C54.4849 21.9091 53.4661 20.8929 53.4661 19.6735C53.4661 18.4541 54.4849 17.4379 55.7074 17.4379C56.93 17.4379 57.9487 18.4541 57.9487 19.6735C57.9895 20.9336 56.9707 21.9091 55.7074 21.9091ZM55.7074 18.1696C54.8924 18.1696 54.1996 18.8199 54.1996 19.6735C54.1996 20.5271 54.8516 21.1775 55.7074 21.1775C56.5224 21.1775 57.2152 20.5271 57.2152 19.6735C57.2152 18.8199 56.5632 18.1696 55.7074 18.1696Z" fill="#232C33"/>
<path d="M55.7074 30.4857C54.4849 30.4857 53.4661 29.4695 53.4661 28.2501C53.4661 27.0307 54.4849 26.0145 55.7074 26.0145C56.93 26.0145 57.9487 27.0307 57.9487 28.2501C57.9895 29.4695 56.9707 30.4857 55.7074 30.4857ZM55.7074 26.7461C54.8924 26.7461 54.1996 27.3965 54.1996 28.2501C54.1996 29.1037 54.8516 29.7541 55.7074 29.7541C56.5224 29.7541 57.2152 29.1037 57.2152 28.2501C57.2152 27.3965 56.5632 26.7461 55.7074 26.7461Z" fill="#232C33"/>
<path d="M93.4842 0.325134H84.7633C84.4373 0.325134 84.2743 0.447077 83.8668 0.650316C81.9107 1.66651 77.9578 4.71508 77.917 4.75573C77.6725 4.95897 77.6725 5.1622 77.6725 5.40609C77.7133 7.60106 77.9985 9.75539 78.5691 11.8691C78.6913 12.3162 79.1396 12.4788 79.5471 12.2349L84.8856 8.90179C84.9671 8.82049 85.0893 8.94244 85.0486 9.02373C81.7477 16.4216 79.8731 25.4047 78.8951 33.8594C78.8543 34.2253 79.0988 34.4692 79.4248 34.5505C84.8448 35.4447 90.7945 35.4041 96.622 34.5505C96.948 34.5098 97.2333 34.1846 97.111 33.7782C93.9324 24.1447 93.3619 12.6007 94.0139 0.772258C93.9732 0.528373 93.7694 0.325134 93.4842 0.325134Z" fill="#FFE500"/>
<path d="M87.8196 35.6073C84.8855 35.6073 82.0736 35.4041 79.3433 34.957C78.7728 34.835 78.4467 34.3879 78.4875 33.8595C79.6285 24.3073 81.5846 16.1778 84.315 9.71479L79.71 12.6008C79.4248 12.804 79.058 12.804 78.7728 12.7227C78.4875 12.6008 78.2837 12.3569 78.2022 12.0317C77.6317 9.95868 77.3057 7.72305 77.265 5.48743C77.265 5.2029 77.265 4.83707 77.6317 4.51189C78.4467 3.69894 82.5219 0.934896 83.663 0.365829L83.826 0.284534C84.152 0.121943 84.3557 0 84.7225 0H93.4433C93.9324 0 94.2991 0.365829 94.3806 0.812953V0.853601V0.894248C93.6471 14.4706 94.6659 25.2015 97.4777 33.7782C97.5592 34.0627 97.5185 34.3473 97.3962 34.5505C97.2332 34.7944 96.9887 34.957 96.7035 34.9976C93.7286 35.3635 90.7537 35.6073 87.8196 35.6073ZM84.967 8.53601C85.0893 8.53601 85.1708 8.57665 85.2523 8.6173C85.4153 8.73925 85.4968 8.98313 85.4153 9.18637C82.5627 15.6087 80.4436 24.1854 79.3025 33.9001C79.3025 34.0627 79.384 34.144 79.5063 34.1847C84.8447 35.0383 90.7537 35.0383 96.5812 34.1847C96.6627 34.1847 96.7035 34.144 96.7442 34.0627C96.7442 34.0627 96.785 33.9814 96.7442 33.9001C93.8916 25.2828 92.8728 14.4299 93.6063 0.812953C93.6063 0.731658 93.5248 0.69101 93.4433 0.69101H84.7632C84.6002 0.69101 84.5187 0.731658 84.2335 0.894248L84.0705 0.975544C82.3589 1.86979 78.8543 4.47124 78.2837 4.95901L78.2022 5.04031C78.1207 5.1216 78.08 5.16225 78.08 5.44679C78.1207 7.64176 78.406 9.75544 78.9765 11.7878C79.0173 11.8691 79.058 11.9504 79.0988 11.9504C79.1803 11.9911 79.2618 11.9504 79.3433 11.9098L84.6817 8.6173C84.7632 8.53601 84.8855 8.53601 84.967 8.53601Z" fill="#232C33"/>
<path d="M120.013 32.7213C120.788 26.3803 120.462 19.958 119.973 13.4543C119.932 13.1291 120.217 12.8853 120.543 12.8853L128.001 13.3324C128.204 13.3324 128.408 13.495 128.449 13.6576L131.831 19.7547C131.872 19.836 132.035 19.6734 132.035 19.5921V13.8202C132.035 13.5356 132.239 13.3324 132.524 13.2917L138.759 12.8446C139.085 12.804 139.37 13.0885 139.33 13.4137C138.596 18.6572 138.718 27.5997 139.37 32.7213C139.411 33.0058 139.167 33.2497 138.881 33.2904L131.872 33.6969C131.668 33.6969 131.465 33.5749 131.342 33.3717L127.715 26.4209C127.675 26.3396 127.512 26.3396 127.512 26.4616V33.1684C127.512 33.453 127.267 33.6969 126.941 33.6969L120.462 33.2904C120.176 33.2904 119.973 33.0058 120.013 32.7213Z" fill="#E2001A"/>
<path d="M131.831 34.1034C131.465 34.1034 131.139 33.9002 131.016 33.575L127.919 27.6404V33.2092C127.919 33.453 127.797 33.6969 127.634 33.8595C127.471 34.0221 127.226 34.1034 126.982 34.1034L120.502 33.6969C120.258 33.6969 120.013 33.575 119.85 33.3717C119.687 33.1685 119.606 32.9246 119.647 32.6807C120.421 26.2991 120.054 19.7141 119.606 13.495C119.606 13.2512 119.687 12.9666 119.85 12.804C120.013 12.6008 120.299 12.5195 120.543 12.5195L128.001 12.9666C128.327 13.0073 128.653 13.2105 128.775 13.5357L131.628 18.6979V13.8609C131.628 13.4137 131.994 13.0073 132.443 12.9666L138.678 12.5195C138.963 12.5195 139.207 12.6008 139.411 12.804C139.574 13.0073 139.656 13.2512 139.656 13.495C138.881 18.8199 139.044 27.7217 139.696 32.6807C139.737 32.9246 139.656 33.1279 139.493 33.3311C139.33 33.5343 139.085 33.6563 138.841 33.6563L131.831 34.1034C131.831 34.1034 131.872 34.1034 131.831 34.1034ZM127.634 26.0145C127.797 26.0145 127.96 26.0958 128.082 26.2584L131.709 33.2092C131.75 33.2905 131.791 33.3311 131.872 33.3311L138.881 32.9246C138.922 32.9246 138.963 32.884 139.004 32.884C139.044 32.8433 139.044 32.8433 139.044 32.8027C138.392 27.7624 138.229 18.7792 139.004 13.4137C139.004 13.3731 139.004 13.3731 138.963 13.3325C138.922 13.2918 138.881 13.2918 138.841 13.2918L132.606 13.7389C132.524 13.7389 132.483 13.8202 132.483 13.9015V19.6328C132.483 19.8767 132.28 20.1613 132.035 20.2019C131.831 20.2426 131.628 20.1613 131.546 19.9987L128.164 13.8609C128.164 13.8202 128.082 13.7796 128.041 13.7796L120.584 13.3325C120.502 13.3325 120.502 13.3731 120.462 13.3731C120.462 13.3731 120.421 13.4137 120.421 13.495C120.869 19.7548 121.236 26.421 120.462 32.8433C120.462 32.884 120.462 32.9246 120.502 32.9653C120.502 33.0059 120.543 33.0059 120.625 33.0059L127.104 33.4124C127.145 33.4124 127.186 33.3717 127.226 33.3717C127.226 33.3717 127.267 33.3311 127.267 33.2498V26.5429C127.267 26.3397 127.43 26.1365 127.634 26.0552C127.552 26.0145 127.593 26.0145 127.634 26.0145Z" fill="#232C33"/>
<path d="M158.361 16.4623C159.554 16.4623 160.521 15.4978 160.521 14.308C160.521 13.1182 159.554 12.1537 158.361 12.1537C157.168 12.1537 156.201 13.1182 156.201 14.308C156.201 15.4978 157.168 16.4623 158.361 16.4623Z" fill="white"/>
<path d="M158.361 16.6656C157.057 16.6656 156.038 15.6087 156.038 14.3487C156.038 13.0479 157.097 12.0317 158.361 12.0317C159.665 12.0317 160.684 13.0886 160.684 14.3487C160.684 15.6087 159.624 16.6656 158.361 16.6656ZM158.361 12.3569C157.301 12.3569 156.405 13.2105 156.405 14.308C156.405 15.3648 157.301 16.2591 158.361 16.2591C159.42 16.2591 160.317 15.4055 160.317 14.308C160.317 13.2512 159.42 12.3569 158.361 12.3569Z" fill="#232C33"/>
<path d="M157.627 15.4055H157.994V14.43H158.361L158.972 15.4055H159.339L158.687 14.43C159.013 14.3893 159.298 14.2267 159.298 13.8203C159.298 13.3731 159.053 13.1699 158.524 13.1699H157.668L157.627 15.4055ZM157.994 13.4544H158.442C158.687 13.4544 158.931 13.4951 158.931 13.7796C158.931 14.1454 158.646 14.1454 158.32 14.1454H157.953L157.994 13.4544Z" fill="#232C33"/>
<path d="M155.264 34.0627L141.897 33.5343C141.653 33.5343 141.408 33.3311 141.367 33.0872C140.063 22.8846 140.838 14.9177 141.327 13.0885C141.367 12.8446 141.571 12.682 141.816 12.682L153.634 12.1536C153.919 12.1536 154.163 12.3569 154.204 12.6414C154.204 13.5356 154.326 14.7551 154.612 16.2997C154.652 16.6249 154.408 16.8688 154.082 16.8688H148.499C148.214 16.8688 147.969 17.1126 147.969 17.3972V19.267C147.969 19.5515 148.214 19.7954 148.499 19.7954H151.963C152.207 19.7954 152.452 19.9986 152.492 20.2425L152.9 23.0472C152.941 23.3724 152.696 23.6569 152.37 23.6569H148.54C148.254 23.6569 148.01 23.9008 148.01 24.1853V26.3803C148.01 26.6648 148.254 26.9087 148.54 26.9087H154.734C155.019 26.9087 155.264 27.112 155.264 27.3965C155.304 29.2256 155.467 31.258 155.753 33.453C155.834 33.7782 155.59 34.0627 155.264 34.0627Z" fill="#FFE500"/>
<path d="M155.264 34.4285L141.897 33.9001C141.449 33.9001 141.082 33.5342 141.041 33.0871C139.696 22.7626 140.552 14.7144 141.001 12.9259C141.082 12.5194 141.449 12.2755 141.856 12.2349L153.674 11.7065C154.163 11.7065 154.571 12.0316 154.612 12.5194V12.5601C154.612 13.4543 154.734 14.6331 155.019 16.137C155.06 16.4216 154.978 16.6655 154.815 16.8687C154.652 17.0719 154.408 17.1532 154.123 17.1532H148.54C148.499 17.1532 148.458 17.1939 148.417 17.1939C148.417 17.1939 148.377 17.2345 148.377 17.3158V19.1856C148.377 19.2263 148.417 19.2669 148.417 19.3076C148.417 19.3076 148.458 19.3482 148.54 19.3482H152.003C152.452 19.3482 152.819 19.6734 152.9 20.1205L153.308 22.9252C153.348 23.1691 153.267 23.4536 153.104 23.6569C152.941 23.8601 152.696 23.982 152.411 23.982H148.58C148.499 23.982 148.417 24.0633 148.417 24.1446V26.3396C148.417 26.3802 148.458 26.4209 148.458 26.4615C148.458 26.4615 148.499 26.5022 148.58 26.5022H154.775C155.264 26.5022 155.63 26.868 155.671 27.3558C155.712 29.1849 155.875 31.1767 156.16 33.3716C156.201 33.6562 156.079 33.9001 155.916 34.1033C155.753 34.3065 155.549 34.4285 155.264 34.4285ZM155.264 33.6562C155.345 33.6562 155.345 33.6155 155.386 33.6155C155.386 33.6155 155.427 33.5749 155.427 33.4936C155.141 31.2986 154.978 29.2256 154.938 27.3964C154.938 27.3558 154.856 27.2745 154.775 27.2745H148.58C148.336 27.2745 148.091 27.1932 147.928 26.99C147.765 26.8274 147.643 26.5835 147.643 26.3396V24.1446C147.643 23.6569 148.051 23.2504 148.54 23.2504H152.37C152.411 23.2504 152.452 23.2097 152.492 23.2097C152.492 23.2097 152.533 23.1691 152.533 23.0878L152.126 20.2831C152.126 20.2018 152.044 20.1612 151.963 20.1612H148.499C148.254 20.1612 148.01 20.0799 147.847 19.8766C147.684 19.714 147.562 19.4702 147.562 19.2263V17.3565C147.562 17.1126 147.643 16.8687 147.847 16.7061C148.01 16.5435 148.254 16.4216 148.499 16.4216H154.082C154.123 16.4216 154.163 16.3809 154.204 16.3809C154.204 16.3809 154.245 16.3403 154.245 16.259C153.96 14.755 153.837 13.5356 153.837 12.6007C153.837 12.5194 153.756 12.4788 153.674 12.4788L141.856 13.0072C141.775 13.0072 141.734 13.0478 141.693 13.1291C141.245 14.877 140.43 22.7626 141.775 33.0058C141.775 33.0871 141.856 33.1278 141.938 33.1278L155.264 33.6562Z" fill="#232C33"/>
<path d="M108.114 12.4788C102.205 12.4788 97.3963 17.5191 97.3963 23.6975C97.3963 29.876 102.205 34.9163 108.114 34.9163C114.023 34.9163 118.832 29.876 118.832 23.6975C118.832 17.5191 114.023 12.4788 108.114 12.4788ZM105.424 21.34C104.161 21.34 103.142 20.3238 103.142 19.0637C103.142 17.8036 104.161 16.7874 105.424 16.7874C106.688 16.7874 107.706 17.8036 107.706 19.0637C107.706 20.3238 106.688 21.34 105.424 21.34Z" fill="#0090D4"/>
<path d="M108.114 35.2823C102.001 35.2823 96.9888 30.0794 96.9888 23.6977C96.9888 17.316 101.96 12.1131 108.114 12.1131C114.227 12.1131 119.239 17.316 119.239 23.6977C119.198 30.0794 114.227 35.2823 108.114 35.2823ZM108.114 12.8448C102.409 12.8448 97.763 17.7225 97.763 23.6977C97.763 29.6729 102.409 34.5506 108.114 34.5506C113.819 34.5506 118.465 29.6729 118.465 23.6977C118.465 17.7225 113.819 12.8448 108.114 12.8448Z" fill="#232C33"/>
<path d="M105.424 21.7465C103.957 21.7465 102.775 20.5677 102.775 19.1044C102.775 17.6411 103.957 16.4623 105.424 16.4623C106.891 16.4623 108.073 17.6411 108.073 19.1044C108.114 20.5677 106.891 21.7465 105.424 21.7465ZM105.424 17.194C104.365 17.194 103.509 18.0476 103.509 19.1044C103.509 20.1612 104.365 21.0148 105.424 21.0148C106.484 21.0148 107.34 20.1612 107.34 19.1044C107.34 18.0476 106.484 17.194 105.424 17.194Z" fill="#232C33"/>
</svg>
